<svg width="109" height="36" viewBox="0 0 109 36" fill="none" xmlns="http://www.w3.org/2000/svg">
<g clip-path="url(#clip0_3670_13021)">
<path d="M102.666 15.7534C104.765 17.8568 105.819 20.323 100.157 18.868C94.4956 17.4131 89.4822 14.499 89.4822 14.499C89.4822 14.499 91.2486 13.8462 93.6081 14.0083L93.6337 14.0126L94.4145 14.0979C94.2225 14.0126 94.0049 13.9272 93.7617 13.8419C93.7532 13.8419 93.7404 13.8376 93.7319 13.8334C88.4796 12.0371 72.4412 10.868 66.2673 12.0243C61.4161 8.7091 51.0908 2.27924 39.0801 2.7315C37.5014 2.79124 36.0209 2.9619 34.6342 3.2179C34.63 3.2179 34.63 3.2179 34.6257 3.2179C25.1793 4.94164 20.2001 10.467 20.2001 10.467C15.4214 10.467 9.42678 8.3379 7.55371 5.9315C9.49078 7.43764 28.9084 1.72457 37.4801 0.999239C42.327 0.585373 45.4673 0.329373 50.4209 2.04031C54.231 3.35444 59.1164 5.83337 66.6769 10.3006C70.5894 10.0659 74.3313 10.0446 77.8556 10.1768C95.6476 10.8296 107.842 15.3096 107.842 15.3096C105.576 15.796 102.666 15.7534 102.666 15.7534Z" fill="url(#paint0_linear_3670_13021)"/>
<path d="M50.186 15.4419C38.1796 20.7582 24.6201 16.4872 14.0175 13.6584C14.0132 13.6584 14.0089 13.6542 14.0047 13.6542C8.51346 12.195 3.82013 11.1198 0.539062 11.956C0.743863 11.8238 5.60787 8.83284 16.9487 11.555C22.1113 12.7966 27.3081 13.859 32.3599 14.5843C38.6447 15.4931 44.7033 15.8814 50.186 15.4419Z" fill="url(#paint1_linear_3670_13021)"/>
<path d="M0.530758 14.7166C2.57023 12.6771 8.22356 13.7694 11.0054 14.7166C6.05182 18.4456 0.236358 17.0547 0.530758 14.7166Z" fill="url(#paint2_linear_3670_13021)"/>
<path d="M72.6372 20.6984C77.9791 13.5603 88.9145 15.2883 95.9673 21.4067C87.7028 17.571 77.6676 17.9763 72.6372 20.6984Z" fill="url(#paint3_linear_3670_13021)"/>
<path d="M108.286 16.5086C109.536 21.7694 107.116 26.7486 104.697 30.5032C106.63 22.3624 106.139 18.8808 105.218 16.7902C106.69 16.7475 108.286 16.5086 108.286 16.5086Z" fill="url(#paint4_linear_3670_13021)"/>
<path d="M50.4209 2.04031C43.8545 0.751774 40.087 1.57524 34.6342 3.2179C34.63 3.2179 34.63 3.2179 34.6257 3.2179C25.1793 4.94164 20.2001 10.467 20.2001 10.467C15.4214 10.467 9.42678 8.3379 7.55371 5.9315C9.49078 7.43764 28.9084 1.72457 37.4801 0.999239C42.327 0.585373 45.4673 0.329373 50.4209 2.04031Z" fill="url(#paint5_linear_3670_13021)"/>
<path d="M102.666 15.7534C104.765 17.8569 105.819 20.323 100.157 18.8681C94.4955 17.4131 89.4821 14.499 89.4821 14.499C89.4821 14.499 91.2485 13.8462 93.608 14.0083L93.6336 14.0126L94.4144 14.0979C94.1968 14.0126 93.9792 13.9273 93.7616 13.8419C93.7531 13.8419 93.7403 13.8377 93.7317 13.8334C85.5525 10.723 77.8555 10.1768 77.8555 10.1768C95.6475 10.8296 107.842 15.3097 107.842 15.3097C105.576 15.7961 102.666 15.7534 102.666 15.7534Z" fill="url(#paint6_linear_3670_13021)"/>
<path d="M50.1861 15.4419C38.1797 20.7582 24.6202 16.4872 14.0176 13.6584C20.8485 15.4803 20.9253 14.1534 32.36 14.5843C38.6448 15.4931 44.7034 15.8814 50.1861 15.4419Z" fill="url(#paint7_linear_3670_13021)"/>
<path d="M12.0799 34.7964L7.07482 28.1732L8.97524 26.8749L13.9238 33.4417L12.0799 34.7964ZM7.97799 32.9148C7.03719 32.9148 6.16538 32.7455 5.36257 32.4068C4.55975 32.0681 3.85729 31.5977 3.25518 30.9956C2.66561 30.3809 2.20775 29.6596 1.88161 28.8317C1.55546 28.0038 1.39239 27.1007 1.39239 26.1222C1.39239 25.1438 1.55546 24.2406 1.88161 23.4127C2.20775 22.5848 2.66561 21.8698 3.25518 21.2677C3.85729 20.6531 4.55975 20.1764 5.36257 19.8377C6.16538 19.499 7.03719 19.3297 7.97799 19.3297C8.93134 19.3297 9.80942 19.499 10.6122 19.8377C11.415 20.1764 12.1112 20.6531 12.7008 21.2677C13.2904 21.8824 13.7482 22.6036 14.0744 23.4315C14.4005 24.2469 14.5636 25.1438 14.5636 26.1222C14.5636 27.0881 14.4005 27.985 14.0744 28.8129C13.7482 29.6408 13.2904 30.3621 12.7008 30.9768C12.1112 31.5914 11.415 32.0681 10.6122 32.4068C9.80942 32.7455 8.93134 32.9148 7.97799 32.9148ZM7.97799 30.5816C8.5801 30.5816 9.12577 30.475 9.61498 30.2618C10.1167 30.036 10.5495 29.7224 10.9133 29.321C11.2771 28.907 11.5593 28.4303 11.76 27.8909C11.9733 27.3515 12.0799 26.762 12.0799 26.1222C12.0799 25.4825 11.9733 24.8929 11.76 24.3535C11.5593 23.8141 11.2771 23.3437 10.9133 22.9423C10.5495 22.5284 10.1167 22.2148 9.61498 22.0015C9.12577 21.7757 8.5801 21.6628 7.97799 21.6628C7.38842 21.6628 6.84276 21.7757 6.341 22.0015C5.83924 22.2148 5.40647 22.5221 5.0427 22.9235C4.67892 23.3249 4.39668 23.7953 4.19598 24.3347C3.99527 24.8741 3.89492 25.4699 3.89492 26.1222C3.89492 26.762 3.99527 27.3578 4.19598 27.9098C4.39668 28.4491 4.67892 28.9195 5.0427 29.321C5.40647 29.7224 5.83924 30.036 6.341 30.2618C6.84276 30.475 7.38842 30.5816 7.97799 30.5816ZM22.4845 32.8396C21.4434 32.8396 20.5151 32.62 19.6998 32.181C18.8844 31.7294 18.2384 31.1147 17.7617 30.337C17.2976 29.5467 17.0655 28.6561 17.0655 27.6651V19.5366H19.5304V27.4958C19.5304 28.0854 19.6621 28.6122 19.9256 29.0763C20.2015 29.5279 20.5653 29.8917 21.0169 30.1677C21.4685 30.4436 21.9577 30.5816 22.4845 30.5816C23.0616 30.5816 23.5821 30.4436 24.0463 30.1677C24.5104 29.8917 24.8742 29.5279 25.1376 29.0763C25.4136 28.6122 25.5515 28.0854 25.5515 27.4958V19.5366H27.9224V27.6651C27.9224 28.6561 27.684 29.5467 27.2074 30.337C26.7432 31.1147 26.1035 31.7294 25.2881 32.181C24.4728 32.62 23.5382 32.8396 22.4845 32.8396ZM34.6257 32.7267V26.1599L34.7574 27.0819L29.4325 19.5555H32.2925L36.3568 25.3884L35.4724 25.332L39.1416 19.5555H41.8887L36.7896 27.2888L37.0718 26.0093V32.7267H34.6257ZM43.7312 32.7267V19.5555H45.9327L53.572 29.8478L53.158 29.9231C53.1078 29.5718 53.0639 29.2143 53.0263 28.8506C52.9887 28.4742 52.951 28.0854 52.9134 27.684C52.8883 27.2826 52.8632 26.8623 52.8381 26.4233C52.8256 25.9843 52.813 25.5264 52.8005 25.0497C52.788 24.5605 52.7817 24.0462 52.7817 23.5068V19.5555H55.2089V32.7267H52.9698L45.2929 22.5848L45.7821 22.4531C45.8448 23.1556 45.895 23.7577 45.9327 24.2595C45.9828 24.7487 46.0205 25.1752 46.0456 25.5389C46.0706 25.8902 46.0895 26.185 46.102 26.4233C46.1271 26.6616 46.1396 26.8811 46.1396 27.0819C46.1522 27.27 46.1584 27.4519 46.1584 27.6275V32.7267H43.7312ZM67.1919 32.7267V19.5555H69.638V32.7267H67.1919ZM58.7436 32.7267V19.5555H61.1896V32.7267H58.7436ZM59.7596 27.3076V25.0121H68.3773V27.3076H59.7596Z" fill="#D5E6FF"/>
</g>
<defs>
<linearGradient id="paint0_linear_3670_13021" x1="7.55209" y1="10.0011" x2="107.84" y2="10.0011" gradientUnits="userSpaceOnUse">
<stop stop-color="#35A0FF"/>
<stop offset="1" stop-color="#390096"/>
</linearGradient>
<linearGradient id="paint1_linear_3670_13021" x1="0.537441" y1="14.1957" x2="50.1844" y2="14.1957" gradientUnits="userSpaceOnUse">
<stop stop-color="#35A0FF"/>
<stop offset="1" stop-color="#390096"/>
</linearGradient>
<linearGradient id="paint2_linear_3670_13021" x1="0.518385" y1="15.2905" x2="11.0038" y2="15.2905" gradientUnits="userSpaceOnUse">
<stop stop-color="#35A0FF"/>
<stop offset="1" stop-color="#390096"/>
</linearGradient>
<linearGradient id="paint3_linear_3670_13021" x1="72.6384" y1="18.7228" x2="95.968" y2="18.7228" gradientUnits="userSpaceOnUse">
<stop stop-color="#35A0FF"/>
<stop offset="1" stop-color="#390096"/>
</linearGradient>
<linearGradient id="paint4_linear_3670_13021" x1="84.2369" y1="14.1317" x2="108.613" y2="24.3995" gradientUnits="userSpaceOnUse">
<stop stop-color="#35A0FF"/>
<stop offset="1" stop-color="#390096"/>
</linearGradient>
<linearGradient id="paint5_linear_3670_13021" x1="7.55209" y1="5.58177" x2="50.4193" y2="5.58177" gradientUnits="userSpaceOnUse">
<stop stop-color="#35A0FF"/>
<stop offset="1" stop-color="#390096"/>
</linearGradient>
<linearGradient id="paint6_linear_3670_13021" x1="77.8538" y1="14.7424" x2="107.84" y2="14.7424" gradientUnits="userSpaceOnUse">
<stop stop-color="#35A0FF"/>
<stop offset="1" stop-color="#390096"/>
</linearGradient>
<linearGradient id="paint7_linear_3670_13021" x1="49.0603" y1="17.4568" x2="18.6324" y2="13.9924" gradientUnits="userSpaceOnUse">
<stop stop-color="#35A0FF"/>
<stop offset="1" stop-color="#390096"/>
</linearGradient>
<clipPath id="clip0_3670_13021">
<rect width="109" height="36" fill="white"/>
</clipPath>
</defs>
</svg>
